<?xml version="1.0" encoding="UTF-8" standalone="no"?>
<svg xmlns:dc="http://purl.org/dc/elements/1.1/" xmlns:cc="http://creativecommons.org/ns#" xmlns:rdf="http://www.w3.org/1999/02/22-rdf-syntax-ns#" xmlns:svg="http://www.w3.org/2000/svg" xmlns="http://www.w3.org/2000/svg" width="567.25" height="566.62494" version="1.0">
  <metadata>
    <rdf:RDF>
      <cc:Work rdf:about="">
        <dc:format>image/svg+xml</dc:format>
        <dc:type rdf:resource="http://purl.org/dc/dcmitype/StillImage"/>
      </cc:Work>
    </rdf:RDF>
  </metadata>
  <circle cx="283.312496" cy="283.375006" r="139" fill="#ffffff"/>
  <path transform="translate(-87.803574,-46.192594)" style="opacity:1;fill:#000000;fill-opacity:1;fill-rule:nonzero;stroke:#000000;stroke-width:0.06122747;stroke-linecap:butt;stroke-linejoin:miter;stroke-miterlimit:4;stroke-dasharray:none;stroke-opacity:1" d="M 370.42857,46.255094 C 365.64698,92.373287 363.43927,140.51002 357.55357,185.59885 C 354.10219,132.56693 331.11174,138.29295 335.64732,122.09885 C 348.22314,80.555797 310.52997,97.692297 318.24107,52.567594 C 298.42657,99.472547 332.83712,90.445127 321.52232,111.53635 C 296.66602,150.62436 341.89467,148.8347 329.95982,190.9426 L 263.92857,66.630094 L 303.64732,201.0051 C 278.89554,153.51346 260.10637,168.18763 257.67857,151.5051 C 252.32517,108.4317 224.83753,139.37935 213.58482,95.005097 C 214.49621,145.91537 242.27962,123.7312 240.49107,147.59885 C 233.61266,193.48155 274.36066,173.37327 280.42857,216.97385 C 279.78828,217.4901 279.15356,218.00948 278.52232,218.53635 L 169.64732,129.91135 L 260.36607,236.59885 C 260.21881,236.77399 260.07502,236.95426 259.92857,237.1301 C 219.35383,202.61281 207.47727,223.13258 198.99107,208.59885 C 177.89166,170.6674 164.01632,209.65145 136.95982,172.72385 C 156.87653,219.58549 174.30202,188.61169 181.58482,211.41135 C 192.33627,256.28226 222.31258,222.99911 244.24107,260.16135 C 243.7636,261.03142 243.29479,261.90553 242.83482,262.78635 L 109.27232,221.5676 L 233.05357,286.34885 C 233.00541,286.50268 232.97623,286.66355 232.92857,286.8176 C 182.67203,270.37704 179.36273,293.77284 166.05357,283.53635 C 132.20786,256.36199 134.03797,297.69082 95.053574,273.6926 C 131.17147,309.58388 135.64807,274.32258 150.99107,292.6926 C 177.84352,330.15999 193.05017,288.13932 227.30357,314.1301 C 227.19535,315.14809 227.10927,316.16843 227.02232,317.1926 L 87.866074,329.3801 L 227.08482,342.66135 C 227.10923,342.93289 227.15266,343.20274 227.17857,343.47385 C 174.05966,346.60557 179.66525,369.66694 163.49107,365.03635 C 122.02096,352.22186 138.94567,389.9756 93.866074,382.0051 C 140.65627,402.08899 131.80902,367.66295 152.83482,379.09885 C 191.85674,404.2295 190.28782,358.7624 232.58482,371.1926 C 232.8167,371.96427 233.0592,372.7389 233.30357,373.5051 L 107.61607,436.44255 L 239.86607,398.1926 C 196.34379,421.73599 209.77557,439.71815 193.49107,441.97385 C 150.38186,447.03115 181.16042,474.745 136.70982,485.6925 C 187.62523,485.1309 165.60502,457.20885 189.45982,459.16135 C 234.94761,466.30045 215.78111,426.06611 258.14732,419.8176 C 258.80436,420.63841 259.47291,421.44905 260.14732,422.2551 L 171.30357,529.88 L 278.11607,440.25505 C 278.30756,440.41615 278.48623,440.59505 278.67857,440.75505 C 244.10924,481.2584 264.60011,493.1698 250.05357,501.63 C 212.08583,522.6642 251.05891,536.63732 214.08482,563.63002 C 260.9807,543.79402 230.02267,526.3111 252.83482,519.0676 C 297.73506,508.3908 264.49855,478.3098 301.74107,456.44265 L 262.86607,591.38002 C 273.86469,578.83752 319.53024,465.17695 329.17857,467.97385 C 312.9779,518.1644 336.30119,521.3613 326.11607,534.69262 C 299.05117,568.62582 340.39442,566.66222 316.52232,605.72382 C 352.29674,569.49012 317.01452,565.15722 335.33482,549.75502 C 372.68462,522.8037 330.71192,507.6898 356.45982,473.4113 L 372.20982,612.75502 C 377.47579,566.83402 379.14344,517.7794 385.99107,473.4113 C 389.80286,525.6744 412.53735,519.9904 408.08482,536.13002 C 395.67124,577.72192 433.27587,560.44442 425.74107,605.59882 C 445.37227,558.61692 411.00867,567.76532 422.24107,546.63002 C 446.81761,507.6468 402.20421,509.3681 413.33482,467.88005 L 480.02232,591.28632 L 442.14732,464.94265 C 464.22644,504.0093 481.33997,492.0466 483.36607,507.8488 C 487.98627,551.00712 515.99427,520.5398 526.49107,565.09882 C 526.44527,514.1804 498.29697,535.87012 500.49107,512.0363 C 508.1362,466.35045 467.20421,485.6182 461.77232,442.19255 L 571.02232,530.9113 C 541.88235,494.5244 510.14781,458.51265 482.20982,422.0676 C 522.51471,457.13525 534.61638,436.68365 542.95982,451.31755 C 563.66654,489.4648 577.97352,450.61265 604.64732,487.8175 C 585.21554,440.75285 567.44442,471.56615 560.39732,448.69255 C 550.07279,403.55179 519.58015,436.90875 498.02232,398.8801 L 632.80357,439.28635 C 592.02493,416.72733 548.8717,395.51461 509.24107,372.4426 C 560.38759,389.23724 563.5353,365.5435 576.95982,375.78635 C 610.91044,402.82965 608.91407,361.4703 647.99107,385.3176 C 611.73457,349.56629 607.40487,384.84685 591.99107,366.53635 C 564.81594,328.92699 549.73493,371.81605 514.89732,344.8801 L 654.99107,329.6301 L 515.14732,316.84885 C 515.14461,316.81785 515.15004,316.7861 515.14732,316.7551 C 568.50107,313.40619 562.73845,290.32533 578.95982,294.8801 C 620.49464,307.48334 603.37137,269.79561 648.49107,277.53635 C 636.76807,272.57503 628.54002,270.99876 622.45982,271.2551 C 604.21924,272.02412 605.33512,289.2516 589.52232,280.7551 C 550.39663,255.83863 552.20826,301.20571 509.92857,289.0676 L 634.45982,223.1926 C 589.54776,235.32417 543.11315,252.1192 499.02232,262.1301 C 547.36809,237.62935 532.66365,218.5878 549.42857,216.28635 C 592.54387,211.28175 561.83967,183.55462 606.30357,172.66135 C 555.38757,173.16076 577.34347,201.11173 553.49107,199.1301 C 507.54422,191.86149 527.53028,232.9927 483.42857,238.53635 L 571.74107,128.4426 L 463.89732,218.6926 C 463.86364,218.66439 463.83727,218.62703 463.80357,218.59885 C 499.0995,177.14713 478.09211,165.28716 492.67857,156.66135 C 530.49237,135.352 491.43282,121.67212 528.20982,94.411347 C 481.45934,114.58751 512.53122,131.846 489.77232,139.2551 C 444.61335,150.34068 478.96353,180.53819 440.52232,202.72385 L 479.20982,67.005094 C 469.37145,79.252457 421.51577,193.86891 413.89732,191.41135 C 430.22639,140.62074 406.67083,137.52299 416.83482,124.09885 C 443.75204,90.048267 402.41387,92.201437 426.11607,53.036344 C 390.49937,89.425137 425.80677,93.617177 407.55357,109.09885 C 370.2139,136.29037 412.58731,151.1846 386.52232,185.78635 L 370.42857,46.255094 z M 371.11607,190.6301 C 447.81579,190.63008 510.05357,252.86787 510.05357,329.5676 C 510.05358,406.26735 447.8158,468.50505 371.11607,468.50505 C 294.41634,468.50515 232.14732,406.26733 232.14732,329.5676 C 232.14732,252.8679 294.41634,190.6301 371.11607,190.6301 z M 349.52232,214.09885 L 366.11607,228.7551 L 366.11607,245.1926 L 338.61607,245.1926 L 324.17857,229.1301 L 324.05357,271.91135 L 338.70982,255.1301 L 365.99107,255.1301 L 366.11607,336.0676 L 350.05357,336.0676 L 350.05357,301.16135 C 350.05357,297.53557 355.46887,295.06762 359.05357,295.0676 L 362.92857,295.0676 L 362.92857,290.97385 L 322.08482,290.97385 L 322.08482,295.1301 L 326.86607,295.1301 C 330.44217,295.13011 335.05357,298.12286 335.05357,302.22385 L 335.05357,377.0676 C 335.05357,380.43169 332.03947,384.03625 327.11607,384.03635 L 322.02232,384.03635 L 322.02232,388.3176 L 362.99107,388.3176 L 362.99107,384.03635 L 358.27232,384.03635 C 353.84694,384.03632 350.08482,380.8782 350.08482,377.5051 L 350.05357,341.97385 L 366.11607,342.0051 L 366.11607,343.0051 L 370.64732,372.8176 L 376.05357,343.1301 L 376.05357,342.03635 L 394.08482,342.09885 L 394.08482,377.6926 C 394.08484,380.70259 390.46147,384.03635 386.05357,384.03635 L 380.05357,384.03635 L 380.05357,388.09885 L 421.02232,388.09885 L 421.02232,384.16135 L 416.24107,384.16135 C 410.78277,384.16132 407.02232,380.99915 407.02232,376.84885 L 407.08482,303.03635 C 407.08484,300.20837 410.85077,295.31467 417.67857,295.09885 L 421.20982,295.09885 L 421.20982,291.09885 L 380.05357,291.16135 L 380.05357,295.09885 L 383.55357,295.09885 C 388.99487,295.05546 394.01072,299.81916 394.14732,303.16135 L 394.14732,336.0676 L 376.05357,336.0676 L 376.05357,255.09885 L 404.08482,255.09885 L 418.08482,273.22385 L 418.08482,228.5676 L 404.86607,245.34885 L 376.11607,245.34885 L 376.11607,229.09885 L 393.08482,214.09885 L 349.52232,214.09885 z M 481.08482,288.97385 C 480.48204,293.18385 479.32542,295.71774 477.70982,296.91135 C 428.40664,270.603 406.20902,324.70944 452.33482,345.16135 C 518.36934,371.91519 434.22062,411.29508 430.77232,356.09885 L 426.95982,356.09885 L 426.95982,390.09885 L 431.27232,390.09885 C 430.93834,386.73175 433.65192,383.40275 433.77232,383.22385 C 488.34274,405.62815 512.32192,356.91776 464.33482,332.91135 C 400.73804,304.87381 477.42772,268.61276 481.08482,323.91135 L 485.08482,323.91135 L 485.08482,288.97385 L 481.08482,288.97385 z M 263.83482,290.97385 L 263.83482,295.1301 L 268.61607,295.1301 C 272.19217,295.13011 276.80357,298.12286 276.80357,302.22385 L 276.80357,377.0676 C 276.80357,380.43169 273.78947,384.03625 268.86607,384.03635 L 263.77232,384.03635 L 263.77232,388.3176 L 304.74107,388.3176 L 304.74107,384.03635 L 300.02232,384.03635 C 295.59694,384.03632 291.83482,380.8782 291.83482,377.5051 L 291.80357,301.16135 C 291.80357,297.53557 297.21887,295.06762 300.80357,295.0676 L 304.67857,295.0676 L 304.67857,290.97385 L 263.83482,290.97385 z M 370.05357,403.7551 C 369.48844,403.75353 368.9097,403.76906 368.33482,403.78635 C 365.57544,403.86922 362.71807,404.1745 359.67857,404.8176 C 358.42697,408.05449 359.09917,409.86035 359.67857,411.72385 C 362.57667,412.63265 365.06307,414.06305 366.55357,416.84885 L 370.80357,446.91135 L 375.20982,416.3176 C 376.45014,414.31479 377.01532,412.1101 381.39732,411.0051 C 382.50314,406.73109 381.56632,406.542 381.39732,404.8176 C 377.7296,404.22565 374.0095,403.76606 370.05357,403.7551 z M 327.20982,420.97385 C 322.95254,426.26785 318.97742,431.9871 316.45982,439.88005 C 318.65424,442.56855 320.52227,442.86825 322.42857,443.28635 C 324.65157,441.21685 327.14517,439.73545 330.30357,439.81755 L 358.52232,451.00505 L 334.11607,432.03635 C 332.98877,429.96802 331.37832,428.39145 332.58482,424.03635 C 329.41684,420.96152 328.79222,421.67975 327.20982,420.97385 z M 414.74107,421.41135 C 411.30487,421.89732 410.05412,423.3404 408.70982,424.7551 C 409.32994,427.72839 409.32097,430.62645 407.61607,433.28635 L 383.42857,451.66135 L 412.30357,440.59885 C 414.65677,440.70495 416.82657,440.12485 419.92857,443.41135 C 424.19907,442.29215 423.91182,441.36865 425.33482,440.38005 C 423.00864,433.99729 420.19147,427.65065 414.74107,421.41135 z"/>
</svg>